<?xml version="1.0" encoding="UTF-8" standalone="no"?>
<!DOCTYPE svg PUBLIC "-//W3C//DTD SVG 1.1//EN"
 "http://www.w3.org/Graphics/SVG/1.1/DTD/svg11.dtd">
<!-- Generated by graphviz version 2.38.0 (20140413.2041)
 -->
<!-- Title: %3 Pages: 1 -->
<svg width="1620pt" height="476pt"
 viewBox="0.00 0.00 1619.73 476.00" xmlns="http://www.w3.org/2000/svg" xmlns:xlink="http://www.w3.org/1999/xlink">
<g id="graph0" class="graph" transform="scale(1 1) rotate(0) translate(4 472)">
<title>%3</title>
<polygon fill="white" stroke="none" points="-4,4 -4,-472 1615.73,-472 1615.73,4 -4,4"/>
<!-- [root] azurerm_app_service.dockerappfront -->
<g id="node1" class="node"><title>[root] azurerm_app_service.dockerappfront</title>
<polygon fill="none" stroke="black" points="982.593,-324 755.593,-324 755.593,-288 982.593,-288 982.593,-324"/>
<text text-anchor="middle" x="869.093" y="-302.3" font-family="Times New Roman,serif" font-size="14.00">azurerm_app_service.dockerappfront</text>
</g>
<!-- [root] azurerm_app_service_plan.appserviceplandev -->
<g id="node3" class="node"><title>[root] azurerm_app_service_plan.appserviceplandev</title>
<polygon fill="none" stroke="black" points="1025.09,-252 751.093,-252 751.093,-216 1025.09,-216 1025.09,-252"/>
<text text-anchor="middle" x="888.093" y="-230.3" font-family="Times New Roman,serif" font-size="14.00">azurerm_app_service_plan.appserviceplandev</text>
</g>
<!-- [root] azurerm_app_service.dockerappfront&#45;&gt;[root] azurerm_app_service_plan.appserviceplandev -->
<g id="edge1" class="edge"><title>[root] azurerm_app_service.dockerappfront&#45;&gt;[root] azurerm_app_service_plan.appserviceplandev</title>
<path fill="none" stroke="black" d="M873.79,-287.697C875.907,-279.898 878.455,-270.509 880.811,-261.829"/>
<polygon fill="black" stroke="black" points="884.209,-262.672 883.451,-252.104 877.453,-260.838 884.209,-262.672"/>
</g>
<!-- [root] azurerm_app_service.dockerappfrontqa -->
<g id="node2" class="node"><title>[root] azurerm_app_service.dockerappfrontqa</title>
<polygon fill="none" stroke="black" points="737.093,-324 497.093,-324 497.093,-288 737.093,-288 737.093,-324"/>
<text text-anchor="middle" x="617.093" y="-302.3" font-family="Times New Roman,serif" font-size="14.00">azurerm_app_service.dockerappfrontqa</text>
</g>
<!-- [root] azurerm_app_service_plan.appserviceplanqa -->
<g id="node4" class="node"><title>[root] azurerm_app_service_plan.appserviceplanqa</title>
<polygon fill="none" stroke="black" points="732.593,-252 465.593,-252 465.593,-216 732.593,-216 732.593,-252"/>
<text text-anchor="middle" x="599.093" y="-230.3" font-family="Times New Roman,serif" font-size="14.00">azurerm_app_service_plan.appserviceplanqa</text>
</g>
<!-- [root] azurerm_app_service.dockerappfrontqa&#45;&gt;[root] azurerm_app_service_plan.appserviceplanqa -->
<g id="edge2" class="edge"><title>[root] azurerm_app_service.dockerappfrontqa&#45;&gt;[root] azurerm_app_service_plan.appserviceplanqa</title>
<path fill="none" stroke="black" d="M612.644,-287.697C610.639,-279.898 608.224,-270.509 605.992,-261.829"/>
<polygon fill="black" stroke="black" points="609.372,-260.918 603.492,-252.104 602.592,-262.661 609.372,-260.918"/>
</g>
<!-- [root] azurerm_resource_group.desarrollo -->
<g id="node6" class="node"><title>[root] azurerm_resource_group.desarrollo</title>
<polygon fill="none" stroke="black" points="1047.09,-180 831.093,-180 831.093,-144 1047.09,-144 1047.09,-180"/>
<text text-anchor="middle" x="939.093" y="-158.3" font-family="Times New Roman,serif" font-size="14.00">azurerm_resource_group.desarrollo</text>
</g>
<!-- [root] azurerm_app_service_plan.appserviceplandev&#45;&gt;[root] azurerm_resource_group.desarrollo -->
<g id="edge3" class="edge"><title>[root] azurerm_app_service_plan.appserviceplandev&#45;&gt;[root] azurerm_resource_group.desarrollo</title>
<path fill="none" stroke="black" d="M900.7,-215.697C906.691,-207.474 913.97,-197.483 920.573,-188.421"/>
<polygon fill="black" stroke="black" points="923.572,-190.248 926.632,-180.104 917.914,-186.126 923.572,-190.248"/>
</g>
<!-- [root] var.Region -->
<g id="node8" class="node"><title>[root] var.Region</title>
<ellipse fill="none" stroke="black" cx="740.093" cy="-162" rx="73.387" ry="18"/>
<text text-anchor="middle" x="740.093" y="-158.3" font-family="Times New Roman,serif" font-size="14.00">[root] var.Region</text>
</g>
<!-- [root] azurerm_app_service_plan.appserviceplandev&#45;&gt;[root] var.Region -->
<g id="edge4" class="edge"><title>[root] azurerm_app_service_plan.appserviceplandev&#45;&gt;[root] var.Region</title>
<path fill="none" stroke="black" d="M851.889,-215.876C830.623,-205.818 803.665,-193.067 781.549,-182.607"/>
<polygon fill="black" stroke="black" points="782.935,-179.391 772.398,-178.279 779.942,-185.719 782.935,-179.391"/>
</g>
<!-- [root] azurerm_resource_group.calidad -->
<g id="node5" class="node"><title>[root] azurerm_resource_group.calidad</title>
<polygon fill="none" stroke="black" points="649.093,-180 449.093,-180 449.093,-144 649.093,-144 649.093,-180"/>
<text text-anchor="middle" x="549.093" y="-158.3" font-family="Times New Roman,serif" font-size="14.00">azurerm_resource_group.calidad</text>
</g>
<!-- [root] azurerm_app_service_plan.appserviceplanqa&#45;&gt;[root] azurerm_resource_group.calidad -->
<g id="edge5" class="edge"><title>[root] azurerm_app_service_plan.appserviceplanqa&#45;&gt;[root] azurerm_resource_group.calidad</title>
<path fill="none" stroke="black" d="M586.734,-215.697C580.861,-207.474 573.724,-197.483 567.251,-188.421"/>
<polygon fill="black" stroke="black" points="569.971,-186.207 561.311,-180.104 564.275,-190.276 569.971,-186.207"/>
</g>
<!-- [root] azurerm_app_service_plan.appserviceplanqa&#45;&gt;[root] var.Region -->
<g id="edge6" class="edge"><title>[root] azurerm_app_service_plan.appserviceplanqa&#45;&gt;[root] var.Region</title>
<path fill="none" stroke="black" d="M633.586,-215.876C653.613,-205.933 678.94,-193.36 699.871,-182.968"/>
<polygon fill="black" stroke="black" points="701.443,-186.096 708.843,-178.514 698.33,-179.826 701.443,-186.096"/>
</g>
<!-- [root] provider.azurerm -->
<g id="node7" class="node"><title>[root] provider.azurerm</title>
<polygon fill="none" stroke="black" points="441.093,-108 338.202,-90 441.093,-72 543.985,-90 441.093,-108"/>
<text text-anchor="middle" x="441.093" y="-86.3" font-family="Times New Roman,serif" font-size="14.00">provider.azurerm</text>
</g>
<!-- [root] azurerm_resource_group.calidad&#45;&gt;[root] provider.azurerm -->
<g id="edge7" class="edge"><title>[root] azurerm_resource_group.calidad&#45;&gt;[root] provider.azurerm</title>
<path fill="none" stroke="black" d="M522.674,-143.876C506.867,-133.631 486.75,-120.592 470.448,-110.026"/>
<polygon fill="black" stroke="black" points="472.13,-106.946 461.835,-104.444 468.323,-112.82 472.13,-106.946"/>
</g>
<!-- [root] var.Ambiente -->
<g id="node9" class="node"><title>[root] var.Ambiente</title>
<ellipse fill="none" stroke="black" cx="644.093" cy="-90" rx="82.5854" ry="18"/>
<text text-anchor="middle" x="644.093" y="-86.3" font-family="Times New Roman,serif" font-size="14.00">[root] var.Ambiente</text>
</g>
<!-- [root] azurerm_resource_group.calidad&#45;&gt;[root] var.Ambiente -->
<g id="edge8" class="edge"><title>[root] azurerm_resource_group.calidad&#45;&gt;[root] var.Ambiente</title>
<path fill="none" stroke="black" d="M572.577,-143.697C584.926,-134.597 600.216,-123.331 613.484,-113.555"/>
<polygon fill="black" stroke="black" points="615.885,-116.133 621.86,-107.383 611.733,-110.497 615.885,-116.133"/>
</g>
<!-- [root] var.AmbienteTags -->
<g id="node10" class="node"><title>[root] var.AmbienteTags</title>
<ellipse fill="none" stroke="black" cx="845.093" cy="-90" rx="100.983" ry="18"/>
<text text-anchor="middle" x="845.093" y="-86.3" font-family="Times New Roman,serif" font-size="14.00">[root] var.AmbienteTags</text>
</g>
<!-- [root] azurerm_resource_group.calidad&#45;&gt;[root] var.AmbienteTags -->
<g id="edge9" class="edge"><title>[root] azurerm_resource_group.calidad&#45;&gt;[root] var.AmbienteTags</title>
<path fill="none" stroke="black" d="M621.125,-143.966C668.475,-132.768 730.059,-118.204 776.663,-107.183"/>
<polygon fill="black" stroke="black" points="777.742,-110.524 786.668,-104.817 776.131,-103.712 777.742,-110.524"/>
</g>
<!-- [root] var.Codigo -->
<g id="node11" class="node"><title>[root] var.Codigo</title>
<ellipse fill="none" stroke="black" cx="1039.09" cy="-90" rx="75.2868" ry="18"/>
<text text-anchor="middle" x="1039.09" y="-86.3" font-family="Times New Roman,serif" font-size="14.00">[root] var.Codigo</text>
</g>
<!-- [root] azurerm_resource_group.calidad&#45;&gt;[root] var.Codigo -->
<g id="edge10" class="edge"><title>[root] azurerm_resource_group.calidad&#45;&gt;[root] var.Codigo</title>
<path fill="none" stroke="black" d="M649.157,-145.258C652.169,-144.828 655.153,-144.407 658.093,-144 789.802,-125.752 823.829,-129.204 955.093,-108 961.607,-106.948 968.384,-105.75 975.139,-104.489"/>
<polygon fill="black" stroke="black" points="975.821,-107.922 984.985,-102.605 974.505,-101.047 975.821,-107.922"/>
</g>
<!-- [root] var.Componente -->
<g id="node12" class="node"><title>[root] var.Componente</title>
<ellipse fill="none" stroke="black" cx="1227.09" cy="-90" rx="94.7833" ry="18"/>
<text text-anchor="middle" x="1227.09" y="-86.3" font-family="Times New Roman,serif" font-size="14.00">[root] var.Componente</text>
</g>
<!-- [root] azurerm_resource_group.calidad&#45;&gt;[root] var.Componente -->
<g id="edge11" class="edge"><title>[root] azurerm_resource_group.calidad&#45;&gt;[root] var.Componente</title>
<path fill="none" stroke="black" d="M649.136,-145.089C652.154,-144.708 655.145,-144.344 658.093,-144 863.986,-120.011 917.29,-132.742 1123.09,-108 1131.8,-106.953 1140.9,-105.701 1149.93,-104.359"/>
<polygon fill="black" stroke="black" points="1150.72,-107.779 1160.08,-102.811 1149.66,-100.86 1150.72,-107.779"/>
</g>
<!-- [root] var.Tipo -->
<g id="node13" class="node"><title>[root] var.Tipo</title>
<ellipse fill="none" stroke="black" cx="1406.09" cy="-90" rx="65.7887" ry="18"/>
<text text-anchor="middle" x="1406.09" y="-86.3" font-family="Times New Roman,serif" font-size="14.00">[root] var.Tipo</text>
</g>
<!-- [root] azurerm_resource_group.calidad&#45;&gt;[root] var.Tipo -->
<g id="edge12" class="edge"><title>[root] azurerm_resource_group.calidad&#45;&gt;[root] var.Tipo</title>
<path fill="none" stroke="black" d="M649.126,-144.996C652.146,-144.642 655.141,-144.308 658.093,-144 956.011,-112.881 1034.41,-149.256 1331.09,-108 1337.02,-107.175 1343.18,-106.118 1349.29,-104.935"/>
<polygon fill="black" stroke="black" points="1350.41,-108.278 1359.51,-102.843 1349.01,-101.42 1350.41,-108.278"/>
</g>
<!-- [root] var.created -->
<g id="node14" class="node"><title>[root] var.created</title>
<ellipse fill="none" stroke="black" cx="74.0934" cy="-90" rx="74.187" ry="18"/>
<text text-anchor="middle" x="74.0934" y="-86.3" font-family="Times New Roman,serif" font-size="14.00">[root] var.created</text>
</g>
<!-- [root] azurerm_resource_group.calidad&#45;&gt;[root] var.created -->
<g id="edge13" class="edge"><title>[root] azurerm_resource_group.calidad&#45;&gt;[root] var.created</title>
<path fill="none" stroke="black" d="M448.917,-149.351C369.543,-139.664 255.943,-124.786 157.093,-108 150.813,-106.933 144.281,-105.741 137.764,-104.496"/>
<polygon fill="black" stroke="black" points="138.057,-100.987 127.572,-102.507 136.716,-107.858 138.057,-100.987"/>
</g>
<!-- [root] var.location -->
<g id="node15" class="node"><title>[root] var.location</title>
<ellipse fill="none" stroke="black" cx="243.093" cy="-90" rx="76.8869" ry="18"/>
<text text-anchor="middle" x="243.093" y="-86.3" font-family="Times New Roman,serif" font-size="14.00">[root] var.location</text>
</g>
<!-- [root] azurerm_resource_group.calidad&#45;&gt;[root] var.location -->
<g id="edge14" class="edge"><title>[root] azurerm_resource_group.calidad&#45;&gt;[root] var.location</title>
<path fill="none" stroke="black" d="M474.629,-143.966C422.991,-132.153 354.979,-116.595 306.045,-105.401"/>
<polygon fill="black" stroke="black" points="306.743,-101.97 296.214,-103.152 305.182,-108.794 306.743,-101.97"/>
</g>
<!-- [root] azurerm_resource_group.desarrollo&#45;&gt;[root] provider.azurerm -->
<g id="edge15" class="edge"><title>[root] azurerm_resource_group.desarrollo&#45;&gt;[root] provider.azurerm</title>
<path fill="none" stroke="black" d="M831.047,-145.254C828.03,-144.829 825.041,-144.411 822.093,-144 702.189,-127.296 671.932,-125.164 552.093,-108 536.104,-105.71 518.838,-103.121 502.796,-100.668"/>
<polygon fill="black" stroke="black" points="502.873,-97.1385 492.457,-99.0792 501.81,-104.057 502.873,-97.1385"/>
</g>
<!-- [root] azurerm_resource_group.desarrollo&#45;&gt;[root] var.Ambiente -->
<g id="edge16" class="edge"><title>[root] azurerm_resource_group.desarrollo&#45;&gt;[root] var.Ambiente</title>
<path fill="none" stroke="black" d="M867.306,-143.966C818.583,-132.404 754.74,-117.255 707.818,-106.121"/>
<polygon fill="black" stroke="black" points="708.612,-102.712 698.074,-103.809 706.995,-109.523 708.612,-102.712"/>
</g>
<!-- [root] azurerm_resource_group.desarrollo&#45;&gt;[root] var.AmbienteTags -->
<g id="edge17" class="edge"><title>[root] azurerm_resource_group.desarrollo&#45;&gt;[root] var.AmbienteTags</title>
<path fill="none" stroke="black" d="M915.857,-143.697C903.727,-134.663 888.73,-123.495 875.669,-113.769"/>
<polygon fill="black" stroke="black" points="877.526,-110.788 867.415,-107.622 873.345,-116.402 877.526,-110.788"/>
</g>
<!-- [root] azurerm_resource_group.desarrollo&#45;&gt;[root] var.Codigo -->
<g id="edge18" class="edge"><title>[root] azurerm_resource_group.desarrollo&#45;&gt;[root] var.Codigo</title>
<path fill="none" stroke="black" d="M963.556,-143.876C976.772,-134.625 993.242,-123.096 1007.43,-113.167"/>
<polygon fill="black" stroke="black" points="1009.73,-115.828 1015.91,-107.226 1005.71,-110.093 1009.73,-115.828"/>
</g>
<!-- [root] azurerm_resource_group.desarrollo&#45;&gt;[root] var.Componente -->
<g id="edge19" class="edge"><title>[root] azurerm_resource_group.desarrollo&#45;&gt;[root] var.Componente</title>
<path fill="none" stroke="black" d="M1009.18,-143.966C1055.56,-132.692 1115.98,-118.008 1161.43,-106.961"/>
<polygon fill="black" stroke="black" points="1162.29,-110.353 1171.18,-104.591 1160.63,-103.551 1162.29,-110.353"/>
</g>
<!-- [root] azurerm_resource_group.desarrollo&#45;&gt;[root] var.Tipo -->
<g id="edge20" class="edge"><title>[root] azurerm_resource_group.desarrollo&#45;&gt;[root] var.Tipo</title>
<path fill="none" stroke="black" d="M1047.23,-148.99C1126.18,-139.588 1235.63,-125.237 1331.09,-108 1336.6,-107.007 1342.3,-105.883 1348,-104.699"/>
<polygon fill="black" stroke="black" points="1349.16,-108.031 1358.21,-102.517 1347.7,-101.185 1349.16,-108.031"/>
</g>
<!-- [root] azurerm_resource_group.desarrollo&#45;&gt;[root] var.created -->
<g id="edge21" class="edge"><title>[root] azurerm_resource_group.desarrollo&#45;&gt;[root] var.created</title>
<path fill="none" stroke="black" d="M831.084,-144.944C828.057,-144.611 825.055,-144.295 822.093,-144 527.56,-114.69 450.658,-145.799 157.093,-108 150.33,-107.129 143.295,-106.016 136.307,-104.777"/>
<polygon fill="black" stroke="black" points="136.613,-101.274 126.141,-102.886 135.332,-108.156 136.613,-101.274"/>
</g>
<!-- [root] azurerm_resource_group.desarrollo&#45;&gt;[root] var.location -->
<g id="edge22" class="edge"><title>[root] azurerm_resource_group.desarrollo&#45;&gt;[root] var.location</title>
<path fill="none" stroke="black" d="M831.076,-145.019C828.051,-144.663 825.052,-144.323 822.093,-144 603.693,-120.19 546.818,-137.357 329.093,-108 322.042,-107.049 314.698,-105.879 307.404,-104.601"/>
<polygon fill="black" stroke="black" points="307.984,-101.149 297.519,-102.801 306.731,-108.036 307.984,-101.149"/>
</g>
<!-- [root] var.client_id -->
<g id="node21" class="node"><title>[root] var.client_id</title>
<ellipse fill="none" stroke="black" cx="143.093" cy="-18" rx="78.7863" ry="18"/>
<text text-anchor="middle" x="143.093" y="-14.3" font-family="Times New Roman,serif" font-size="14.00">[root] var.client_id</text>
</g>
<!-- [root] provider.azurerm&#45;&gt;[root] var.client_id -->
<g id="edge30" class="edge"><title>[root] provider.azurerm&#45;&gt;[root] var.client_id</title>
<path fill="none" stroke="black" d="M399.344,-79.1931C348.996,-67.3663 263.891,-47.3753 205.679,-33.7013"/>
<polygon fill="black" stroke="black" points="206.394,-30.274 195.858,-31.3944 204.793,-37.0885 206.394,-30.274"/>
</g>
<!-- [root] var.client_secret -->
<g id="node22" class="node"><title>[root] var.client_secret</title>
<ellipse fill="none" stroke="black" cx="333.093" cy="-18" rx="92.8835" ry="18"/>
<text text-anchor="middle" x="333.093" y="-14.3" font-family="Times New Roman,serif" font-size="14.00">[root] var.client_secret</text>
</g>
<!-- [root] provider.azurerm&#45;&gt;[root] var.client_secret -->
<g id="edge31" class="edge"><title>[root] provider.azurerm&#45;&gt;[root] var.client_secret</title>
<path fill="none" stroke="black" d="M420.27,-75.5033C405.237,-65.7598 384.604,-52.3863 367.184,-41.0959"/>
<polygon fill="black" stroke="black" points="368.71,-37.9138 358.415,-35.4119 364.903,-43.7879 368.71,-37.9138"/>
</g>
<!-- [root] var.subscription_id -->
<g id="node23" class="node"><title>[root] var.subscription_id</title>
<ellipse fill="none" stroke="black" cx="549.093" cy="-18" rx="104.782" ry="18"/>
<text text-anchor="middle" x="549.093" y="-14.3" font-family="Times New Roman,serif" font-size="14.00">[root] var.subscription_id</text>
</g>
<!-- [root] provider.azurerm&#45;&gt;[root] var.subscription_id -->
<g id="edge32" class="edge"><title>[root] provider.azurerm&#45;&gt;[root] var.subscription_id</title>
<path fill="none" stroke="black" d="M461.917,-75.5033C476.845,-65.8275 497.297,-52.5718 514.639,-41.3314"/>
<polygon fill="black" stroke="black" points="516.891,-44.0427 523.379,-35.6667 513.084,-38.1687 516.891,-44.0427"/>
</g>
<!-- [root] var.tenant_id -->
<g id="node24" class="node"><title>[root] var.tenant_id</title>
<ellipse fill="none" stroke="black" cx="753.093" cy="-18" rx="81.4863" ry="18"/>
<text text-anchor="middle" x="753.093" y="-14.3" font-family="Times New Roman,serif" font-size="14.00">[root] var.tenant_id</text>
</g>
<!-- [root] provider.azurerm&#45;&gt;[root] var.tenant_id -->
<g id="edge33" class="edge"><title>[root] provider.azurerm&#45;&gt;[root] var.tenant_id</title>
<path fill="none" stroke="black" d="M483.822,-79.4136C536.624,-67.5668 626.991,-47.2922 688.334,-33.5293"/>
<polygon fill="black" stroke="black" points="689.307,-36.8982 698.298,-31.2939 687.774,-30.068 689.307,-36.8982"/>
</g>
<!-- [root] meta.count&#45;boundary (count boundary fixup) -->
<g id="node16" class="node"><title>[root] meta.count&#45;boundary (count boundary fixup)</title>
<ellipse fill="none" stroke="black" cx="1077.09" cy="-378" rx="198.465" ry="18"/>
<text text-anchor="middle" x="1077.09" y="-374.3" font-family="Times New Roman,serif" font-size="14.00">[root] meta.count&#45;boundary (count boundary fixup)</text>
</g>
<!-- [root] meta.count&#45;boundary (count boundary fixup)&#45;&gt;[root] azurerm_app_service.dockerappfront -->
<g id="edge23" class="edge"><title>[root] meta.count&#45;boundary (count boundary fixup)&#45;&gt;[root] azurerm_app_service.dockerappfront</title>
<path fill="none" stroke="black" d="M1028.06,-360.5C998.567,-350.573 960.79,-337.86 929.464,-327.317"/>
<polygon fill="black" stroke="black" points="930.56,-323.993 919.966,-324.121 928.327,-330.627 930.56,-323.993"/>
</g>
<!-- [root] meta.count&#45;boundary (count boundary fixup)&#45;&gt;[root] azurerm_app_service.dockerappfrontqa -->
<g id="edge24" class="edge"><title>[root] meta.count&#45;boundary (count boundary fixup)&#45;&gt;[root] azurerm_app_service.dockerappfrontqa</title>
<path fill="none" stroke="black" d="M980.382,-362.283C910.145,-351.595 814.585,-337.053 739.101,-325.566"/>
<polygon fill="black" stroke="black" points="739.472,-322.083 729.059,-324.038 738.419,-329.003 739.472,-322.083"/>
</g>
<!-- [root] var.Version -->
<g id="node17" class="node"><title>[root] var.Version</title>
<ellipse fill="none" stroke="black" cx="1077.09" cy="-306" rx="76.0865" ry="18"/>
<text text-anchor="middle" x="1077.09" y="-302.3" font-family="Times New Roman,serif" font-size="14.00">[root] var.Version</text>
</g>
<!-- [root] meta.count&#45;boundary (count boundary fixup)&#45;&gt;[root] var.Version -->
<g id="edge25" class="edge"><title>[root] meta.count&#45;boundary (count boundary fixup)&#45;&gt;[root] var.Version</title>
<path fill="none" stroke="black" d="M1077.09,-359.697C1077.09,-351.983 1077.09,-342.712 1077.09,-334.112"/>
<polygon fill="black" stroke="black" points="1080.59,-334.104 1077.09,-324.104 1073.59,-334.104 1080.59,-334.104"/>
</g>
<!-- [root] var.ssh_key_private -->
<g id="node18" class="node"><title>[root] var.ssh_key_private</title>
<ellipse fill="none" stroke="black" cx="1278.09" cy="-306" rx="106.681" ry="18"/>
<text text-anchor="middle" x="1278.09" y="-302.3" font-family="Times New Roman,serif" font-size="14.00">[root] var.ssh_key_private</text>
</g>
<!-- [root] meta.count&#45;boundary (count boundary fixup)&#45;&gt;[root] var.ssh_key_private -->
<g id="edge26" class="edge"><title>[root] meta.count&#45;boundary (count boundary fixup)&#45;&gt;[root] var.ssh_key_private</title>
<path fill="none" stroke="black" d="M1124.47,-360.5C1154.32,-350.105 1192.94,-336.655 1223.99,-325.842"/>
<polygon fill="black" stroke="black" points="1225.49,-329.025 1233.79,-322.431 1223.19,-322.414 1225.49,-329.025"/>
</g>
<!-- [root] var.ssh_key_public -->
<g id="node19" class="node"><title>[root] var.ssh_key_public</title>
<ellipse fill="none" stroke="black" cx="1507.09" cy="-306" rx="104.782" ry="18"/>
<text text-anchor="middle" x="1507.09" y="-302.3" font-family="Times New Roman,serif" font-size="14.00">[root] var.ssh_key_public</text>
</g>
<!-- [root] meta.count&#45;boundary (count boundary fixup)&#45;&gt;[root] var.ssh_key_public -->
<g id="edge27" class="edge"><title>[root] meta.count&#45;boundary (count boundary fixup)&#45;&gt;[root] var.ssh_key_public</title>
<path fill="none" stroke="black" d="M1169.08,-362.026C1244.6,-349.732 1350.63,-332.47 1423.71,-320.575"/>
<polygon fill="black" stroke="black" points="1424.48,-323.994 1433.79,-318.933 1423.36,-317.085 1424.48,-323.994"/>
</g>
<!-- [root] provider.azurerm (close) -->
<g id="node20" class="node"><title>[root] provider.azurerm (close)</title>
<ellipse fill="none" stroke="black" cx="737.093" cy="-378" rx="123.478" ry="18"/>
<text text-anchor="middle" x="737.093" y="-374.3" font-family="Times New Roman,serif" font-size="14.00">[root] provider.azurerm (close)</text>
</g>
<!-- [root] provider.azurerm (close)&#45;&gt;[root] azurerm_app_service.dockerappfront -->
<g id="edge28" class="edge"><title>[root] provider.azurerm (close)&#45;&gt;[root] azurerm_app_service.dockerappfront</title>
<path fill="none" stroke="black" d="M768.376,-360.411C786.146,-350.987 808.61,-339.075 827.812,-328.892"/>
<polygon fill="black" stroke="black" points="829.462,-331.978 836.657,-324.201 826.183,-325.794 829.462,-331.978"/>
</g>
<!-- [root] provider.azurerm (close)&#45;&gt;[root] azurerm_app_service.dockerappfrontqa -->
<g id="edge29" class="edge"><title>[root] provider.azurerm (close)&#45;&gt;[root] azurerm_app_service.dockerappfrontqa</title>
<path fill="none" stroke="black" d="M708.655,-360.411C692.72,-351.115 672.632,-339.398 655.335,-329.308"/>
<polygon fill="black" stroke="black" points="656.982,-326.216 646.581,-324.201 653.455,-332.263 656.982,-326.216"/>
</g>
<!-- [root] root -->
<g id="node25" class="node"><title>[root] root</title>
<ellipse fill="none" stroke="black" cx="907.093" cy="-450" rx="49.2915" ry="18"/>
<text text-anchor="middle" x="907.093" y="-446.3" font-family="Times New Roman,serif" font-size="14.00">[root] root</text>
</g>
<!-- [root] root&#45;&gt;[root] meta.count&#45;boundary (count boundary fixup) -->
<g id="edge34" class="edge"><title>[root] root&#45;&gt;[root] meta.count&#45;boundary (count boundary fixup)</title>
<path fill="none" stroke="black" d="M938.671,-435.998C963.516,-425.767 998.602,-411.32 1027.23,-399.531"/>
<polygon fill="black" stroke="black" points="1028.76,-402.688 1036.67,-395.644 1026.09,-396.216 1028.76,-402.688"/>
</g>
<!-- [root] root&#45;&gt;[root] provider.azurerm (close) -->
<g id="edge35" class="edge"><title>[root] root&#45;&gt;[root] provider.azurerm (close)</title>
<path fill="none" stroke="black" d="M875.516,-435.998C850.326,-425.625 814.608,-410.918 785.765,-399.041"/>
<polygon fill="black" stroke="black" points="786.851,-395.703 776.272,-395.132 784.186,-402.176 786.851,-395.703"/>
</g>
</g>
</svg>
